<svg width="270" height="39" viewBox="0 0 270 39" fill="none" xmlns="http://www.w3.org/2000/svg">
<path fill-rule="evenodd" clip-rule="evenodd" d="M126.168 26.831C126.161 27.057 126.152 27.289 126.141 27.528C126.131 27.768 126.12 28.002 126.109 28.232C126.099 28.462 126.083 28.672 126.062 28.862H125.786L125.234 26.926H123.639V34.981C123.821 35.026 123.99 35.071 124.148 35.116C124.305 35.161 124.457 35.224 124.604 35.306V35.698H121.656V35.306C121.809 35.233 121.965 35.17 122.122 35.116C122.28 35.062 122.449 35.017 122.631 34.981V26.926H121.026L120.47 28.862H120.207C120.186 28.681 120.169 28.476 120.155 28.246C120.141 28.016 120.129 27.781 120.118 27.542C120.108 27.303 120.099 27.068 120.092 26.838C120.085 26.608 120.081 26.403 120.081 26.222H126.178C126.178 26.403 126.175 26.606 126.168 26.831ZM118.491 35.739C118.327 35.784 118.159 35.815 117.988 35.833C117.816 35.851 117.654 35.861 117.5 35.861C116.912 35.861 116.387 35.763 115.926 35.569C115.464 35.376 115.074 35.08 114.756 34.683C114.437 34.286 114.192 33.778 114.021 33.16C113.849 32.542 113.764 31.808 113.764 30.96C113.764 30.076 113.858 29.324 114.047 28.706C114.236 28.088 114.491 27.583 114.813 27.19C115.135 26.797 115.509 26.511 115.936 26.33C116.363 26.15 116.811 26.06 117.279 26.06C117.741 26.06 118.129 26.098 118.444 26.175C118.759 26.251 119.035 26.366 119.273 26.52C119.273 26.664 119.27 26.834 119.263 27.027C119.256 27.222 119.245 27.427 119.231 27.643C119.217 27.86 119.2 28.072 119.179 28.28C119.158 28.487 119.137 28.677 119.116 28.848H118.843L118.297 26.899C118.221 26.845 118.093 26.809 117.915 26.791C117.738 26.773 117.561 26.764 117.387 26.764C117.038 26.764 116.709 26.847 116.398 27.014C116.088 27.181 115.816 27.438 115.582 27.786C115.348 28.133 115.162 28.571 115.023 29.099C114.883 29.627 114.813 30.247 114.813 30.96C114.813 31.601 114.876 32.181 115.002 32.7C115.127 33.219 115.308 33.661 115.546 34.026C115.783 34.392 116.072 34.672 116.414 34.866C116.756 35.06 117.143 35.157 117.576 35.157C117.806 35.157 117.998 35.134 118.151 35.089C118.305 35.044 118.406 34.985 118.455 34.913L118.948 33.234H119.221C119.256 33.487 119.287 33.805 119.315 34.189C119.343 34.572 119.35 34.945 119.336 35.306C119.231 35.414 119.105 35.502 118.958 35.569C118.812 35.637 118.656 35.694 118.491 35.739ZM107.237 35.306C107.482 35.161 107.768 35.053 108.097 34.981V26.953C107.957 26.917 107.814 26.87 107.667 26.811C107.52 26.752 107.377 26.687 107.237 26.615V26.222H112.211C112.204 26.583 112.192 26.946 112.174 27.312C112.157 27.677 112.13 28.045 112.096 28.415H111.823L111.392 26.926H109.105V30.513H110.815L111.225 29.512H111.487C111.529 30.405 111.529 31.317 111.487 32.246H111.225L110.815 31.217H109.105V34.994H111.518L112.033 33.37H112.295C112.344 33.749 112.379 34.132 112.4 34.52C112.421 34.908 112.424 35.301 112.41 35.698H107.237V35.306ZM106.528 27.528C106.517 27.768 106.507 28.002 106.496 28.232C106.486 28.462 106.47 28.672 106.449 28.862H106.173L105.621 26.926H104.026V34.981C104.208 35.026 104.377 35.071 104.535 35.116C104.692 35.161 104.844 35.224 104.991 35.306V35.698H102.042V35.306C102.196 35.233 102.352 35.17 102.509 35.116C102.667 35.062 102.836 35.017 103.018 34.981V26.926H101.413L100.857 28.862H100.594C100.573 28.681 100.556 28.476 100.542 28.246C100.528 28.016 100.516 27.781 100.505 27.542C100.495 27.303 100.486 27.068 100.479 26.838C100.472 26.608 100.468 26.403 100.468 26.222H106.565C106.565 26.403 106.562 26.606 106.555 26.831C106.548 27.057 106.539 27.289 106.528 27.528ZM96.911 35.306C97.184 35.143 97.464 35.035 97.75 34.981V26.953C97.61 26.917 97.471 26.87 97.331 26.811C97.191 26.752 97.051 26.687 96.911 26.615V26.222H99.597V26.615C99.471 26.687 99.335 26.752 99.188 26.811C99.041 26.87 98.898 26.917 98.758 26.953V34.981C98.905 35.017 99.052 35.062 99.199 35.116C99.346 35.17 99.478 35.233 99.597 35.306V35.698H96.911V35.306ZM93.28 35.306C93.532 35.161 93.794 35.053 94.067 34.981V31.19H90.772V34.981C90.912 35.017 91.048 35.062 91.181 35.116C91.314 35.17 91.44 35.233 91.559 35.306V35.698H88.904V35.306C89.184 35.161 89.471 35.053 89.765 34.981V26.953C89.436 26.89 89.149 26.777 88.904 26.615V26.222H91.559V26.615C91.44 26.696 91.314 26.764 91.181 26.818C91.048 26.872 90.912 26.917 90.772 26.953V30.486H94.067V26.953C93.92 26.908 93.782 26.858 93.653 26.804C93.523 26.75 93.399 26.687 93.28 26.615V26.222H95.935V26.615C95.809 26.705 95.671 26.775 95.521 26.824C95.37 26.874 95.221 26.917 95.075 26.953V34.981C95.235 35.017 95.389 35.062 95.536 35.116C95.683 35.17 95.816 35.233 95.935 35.306V35.698H93.28V35.306ZM86.957 35.739C86.793 35.784 86.625 35.815 86.454 35.833C86.282 35.851 86.12 35.861 85.966 35.861C85.378 35.861 84.853 35.763 84.392 35.569C83.93 35.376 83.54 35.08 83.222 34.683C82.903 34.286 82.658 33.778 82.487 33.16C82.316 32.542 82.23 31.808 82.23 30.96C82.23 30.076 82.324 29.324 82.513 28.706C82.702 28.088 82.957 27.583 83.279 27.19C83.601 26.797 83.975 26.511 84.402 26.33C84.829 26.15 85.277 26.06 85.745 26.06C86.207 26.06 86.595 26.098 86.91 26.175C87.225 26.251 87.501 26.366 87.739 26.52C87.739 26.664 87.736 26.834 87.729 27.027C87.722 27.222 87.711 27.427 87.697 27.643C87.683 27.86 87.666 28.072 87.645 28.28C87.624 28.487 87.603 28.677 87.582 28.848H87.309L86.763 26.899C86.687 26.845 86.559 26.809 86.381 26.791C86.204 26.773 86.027 26.764 85.853 26.764C85.504 26.764 85.175 26.847 84.864 27.014C84.554 27.181 84.282 27.438 84.048 27.786C83.815 28.133 83.628 28.571 83.489 29.099C83.349 29.627 83.279 30.247 83.279 30.96C83.279 31.601 83.342 32.181 83.468 32.7C83.593 33.219 83.775 33.661 84.012 34.026C84.249 34.392 84.538 34.672 84.88 34.866C85.222 35.06 85.609 35.157 86.042 35.157C86.272 35.157 86.464 35.134 86.617 35.089C86.771 35.044 86.872 34.985 86.921 34.913L87.414 33.234H87.687C87.722 33.487 87.753 33.805 87.781 34.189C87.809 34.572 87.816 34.945 87.802 35.306C87.697 35.414 87.571 35.502 87.424 35.569C87.278 35.637 87.122 35.694 86.957 35.739ZM80.061 35.319C79.865 35.003 79.686 34.694 79.526 34.392C79.365 34.089 79.214 33.783 79.074 33.471C78.934 33.16 78.803 32.844 78.681 32.524C78.558 32.203 78.434 31.863 78.308 31.502H77.319V34.981C77.48 35.026 77.634 35.073 77.78 35.123C77.927 35.172 78.071 35.233 78.211 35.306V35.698H75.451V35.306C75.605 35.215 75.751 35.148 75.892 35.102C76.031 35.057 76.171 35.017 76.311 34.981V26.953C76.129 26.908 75.968 26.856 75.829 26.797C75.689 26.739 75.563 26.678 75.451 26.615V26.222H76.374C76.655 26.222 76.962 26.204 77.295 26.168C77.628 26.132 77.952 26.114 78.268 26.114C78.611 26.114 78.932 26.163 79.23 26.263C79.528 26.362 79.786 26.52 80.004 26.736C80.221 26.953 80.391 27.228 80.514 27.562C80.636 27.896 80.698 28.298 80.698 28.767C80.698 29.426 80.563 29.972 80.292 30.405C80.022 30.838 79.655 31.15 79.192 31.339C79.493 31.953 79.808 32.562 80.137 33.167C80.466 33.771 80.808 34.371 81.165 34.967L81.737 35.36V35.698H80.46L80.061 35.319ZM79.223 30.314C79.507 29.92 79.648 29.4 79.648 28.754C79.648 28.091 79.498 27.602 79.197 27.288C78.896 26.975 78.508 26.818 78.032 26.818C77.864 26.818 77.726 26.822 77.618 26.831C77.509 26.84 77.41 26.858 77.319 26.885V30.906H78.074C78.557 30.906 78.94 30.709 79.223 30.314ZM72.271 35.306C72.411 35.233 72.554 35.17 72.701 35.116C72.848 35.062 72.992 35.017 73.132 34.981L72.422 32.503H69.927L69.238 34.981C69.532 35.035 69.833 35.143 70.141 35.306V35.698H67.811V35.306C68.063 35.161 68.315 35.053 68.567 34.981L71.222 26.06H71.526L74.181 34.981C74.321 35.017 74.459 35.057 74.596 35.102C74.732 35.148 74.86 35.215 74.979 35.306V35.698H72.271V35.306ZM71.42 28.929L71.222 27.765H71.201L70.94 28.957L70.136 31.799H72.244L71.42 28.929Z" fill="#33333F"/>
<path fill-rule="evenodd" clip-rule="evenodd" d="M52 0H54V39H52V0Z" fill="#33333F"/>
<path fill-rule="evenodd" clip-rule="evenodd" d="M264.179 21.596V20.789C264.467 20.641 264.762 20.511 265.064 20.4C265.366 20.288 265.66 20.196 265.948 20.121L264.489 15.029H259.361L257.945 20.121C258.549 20.233 259.167 20.455 259.8 20.789V21.596H255.012V20.789C255.529 20.493 256.047 20.27 256.565 20.121L262.022 1.784H262.648L268.105 20.121C268.393 20.196 268.677 20.279 268.957 20.372C269.238 20.465 269.5 20.604 269.745 20.789V21.596H264.179ZM262.429 7.683L262.022 5.29H261.979L261.442 7.739L259.79 13.582H264.124L262.429 7.683ZM250.46 21.596L249.274 21.93L243.773 3.62C243.485 3.528 243.205 3.421 242.932 3.3C242.659 3.18 242.393 3.055 242.134 2.925V2.118H247.85V2.925C247.605 3.055 247.332 3.18 247.03 3.3C246.728 3.421 246.412 3.528 246.081 3.62L249.77 16.337L250.223 18.563H250.266L250.697 16.281L253.89 3.62C253.545 3.528 253.221 3.421 252.919 3.3C252.617 3.18 252.322 3.055 252.035 2.925V2.118H256.888V2.925C256.471 3.221 255.953 3.453 255.335 3.62L250.46 21.596ZM239.729 19.078C239.146 19.978 238.431 20.678 237.582 21.179C236.734 21.68 235.77 21.93 234.692 21.93C233.613 21.93 232.65 21.68 231.801 21.179C230.952 20.678 230.237 19.978 229.655 19.078C229.072 18.178 228.627 17.112 228.317 15.878C228.008 14.644 227.854 13.304 227.854 11.857C227.854 10.41 228.008 9.07 228.317 7.836C228.627 6.602 229.072 5.536 229.655 4.636C230.237 3.736 230.952 3.036 231.801 2.535C232.65 2.034 233.613 1.784 234.692 1.784C235.77 1.784 236.734 2.034 237.582 2.535C238.431 3.036 239.146 3.736 239.729 4.636C240.311 5.536 240.757 6.602 241.066 7.836C241.375 9.07 241.53 10.41 241.53 11.857C241.53 13.304 241.375 14.644 241.066 15.878C240.757 17.112 240.311 18.178 239.729 19.078ZM238.941 8.504C238.754 7.456 238.467 6.542 238.078 5.763C237.69 4.984 237.201 4.367 236.612 3.912C236.022 3.458 235.324 3.231 234.519 3.231C233.728 3.231 233.056 3.458 232.502 3.912C231.948 4.367 231.499 4.984 231.154 5.763C230.809 6.542 230.557 7.456 230.399 8.504C230.241 9.552 230.162 10.67 230.162 11.857C230.162 13.044 230.259 14.162 230.453 15.21C230.647 16.258 230.938 17.172 231.327 17.951C231.715 18.73 232.204 19.347 232.793 19.801C233.383 20.256 234.08 20.483 234.886 20.483C235.619 20.483 236.259 20.256 236.806 19.801C237.352 19.347 237.801 18.73 238.154 17.951C238.506 17.172 238.772 16.258 238.952 15.21C239.132 14.162 239.222 13.044 239.222 11.857C239.222 10.67 239.128 9.552 238.941 8.504ZM223.395 20.817C222.992 20.168 222.625 19.533 222.295 18.911C221.964 18.29 221.655 17.659 221.367 17.019C221.079 16.379 220.81 15.73 220.558 15.071C220.306 14.413 220.051 13.712 219.792 12.97H217.758V20.121C218.089 20.214 218.406 20.312 218.708 20.414C219.01 20.516 219.304 20.641 219.592 20.789V21.596H213.919V20.789C214.235 20.604 214.537 20.465 214.825 20.372C215.112 20.279 215.4 20.196 215.688 20.121V3.62C215.313 3.528 214.983 3.421 214.695 3.3C214.407 3.18 214.149 3.055 213.919 2.925V2.118H215.817C216.394 2.118 217.024 2.081 217.709 2.006C218.394 1.932 219.061 1.895 219.71 1.895C220.416 1.895 221.075 1.997 221.688 2.201C222.3 2.405 222.83 2.73 223.277 3.175C223.724 3.62 224.074 4.186 224.326 4.872C224.578 5.559 224.704 6.385 224.704 7.349C224.704 8.703 224.427 9.826 223.871 10.716C223.316 11.606 222.562 12.246 221.61 12.636C222.228 13.898 222.875 15.15 223.551 16.393C224.227 17.636 224.932 18.869 225.665 20.094L226.84 20.901V21.596H224.215L223.395 20.817ZM221.674 10.529C222.256 9.719 222.547 8.649 222.547 7.322C222.547 5.959 222.238 4.955 221.62 4.31C221.001 3.665 220.203 3.342 219.225 3.342C218.88 3.342 218.596 3.351 218.373 3.37C218.15 3.388 217.945 3.425 217.758 3.48V11.746H219.312C220.304 11.746 221.091 11.34 221.674 10.529ZM210.004 19.078C209.421 19.978 208.706 20.678 207.858 21.179C207.009 21.68 206.046 21.93 204.967 21.93C203.888 21.93 202.925 21.68 202.076 21.179C201.228 20.678 200.513 19.978 199.93 19.078C199.348 18.178 198.902 17.112 198.593 15.878C198.283 14.644 198.129 13.304 198.129 11.857C198.129 10.41 198.283 9.07 198.593 7.836C198.902 6.602 199.348 5.536 199.93 4.636C200.513 3.736 201.228 3.036 202.076 2.535C202.925 2.034 203.888 1.784 204.967 1.784C206.046 1.784 207.009 2.034 207.858 2.535C208.706 3.036 209.421 3.736 210.004 4.636C210.586 5.536 211.032 6.602 211.341 7.836C211.65 9.07 211.805 10.41 211.805 11.857C211.805 13.304 211.65 14.644 211.341 15.878C211.032 17.112 210.586 18.178 210.004 19.078ZM209.216 8.504C209.029 7.456 208.742 6.542 208.354 5.763C207.965 4.984 207.476 4.367 206.887 3.912C206.297 3.458 205.6 3.231 204.794 3.231C204.003 3.231 203.331 3.458 202.778 3.912C202.224 4.367 201.774 4.984 201.429 5.763C201.084 6.542 200.832 7.456 200.674 8.504C200.516 9.552 200.437 10.67 200.437 11.857C200.437 13.044 200.534 14.162 200.728 15.21C200.922 16.258 201.214 17.172 201.602 17.951C201.99 18.73 202.479 19.347 203.069 19.801C203.658 20.256 204.356 20.483 205.161 20.483C205.895 20.483 206.534 20.256 207.081 19.801C207.627 19.347 208.077 18.73 208.429 17.951C208.781 17.172 209.047 16.258 209.227 15.21C209.407 14.162 209.497 13.044 209.497 11.857C209.497 10.67 209.403 9.552 209.216 8.504ZM193.556 18.925C192.895 19.834 192.057 20.548 191.043 21.067C190.029 21.587 188.832 21.847 187.452 21.847C187.236 21.847 186.991 21.833 186.718 21.805C186.445 21.777 186.157 21.749 185.855 21.721C185.553 21.694 185.248 21.666 184.939 21.638C184.629 21.61 184.338 21.596 184.065 21.596H181.994V20.789C182.497 20.493 183.087 20.27 183.763 20.121V3.62C183.432 3.528 183.116 3.421 182.814 3.3C182.512 3.18 182.238 3.055 181.994 2.925V2.118H184.194C184.439 2.118 184.726 2.108 185.057 2.09C185.388 2.071 185.729 2.048 186.082 2.02C186.434 1.992 186.772 1.965 187.096 1.937C187.419 1.909 187.689 1.895 187.905 1.895C190.349 1.895 192.23 2.739 193.545 4.427C194.861 6.115 195.519 8.509 195.519 11.606C195.519 13.072 195.357 14.431 195.034 15.683C194.71 16.935 194.217 18.016 193.556 18.925ZM192.92 8.782C192.726 7.808 192.409 6.918 191.971 6.111C191.532 5.304 190.953 4.641 190.234 4.121C189.515 3.602 188.638 3.342 187.603 3.342C187.228 3.342 186.869 3.347 186.524 3.356C186.179 3.365 185.905 3.398 185.704 3.453V20.316C185.776 20.335 185.905 20.349 186.093 20.358C186.279 20.367 186.481 20.377 186.697 20.386C186.912 20.395 187.117 20.4 187.311 20.4C187.505 20.4 187.646 20.4 187.732 20.4C188.724 20.4 189.565 20.159 190.256 19.676C190.946 19.194 191.51 18.549 191.949 17.742C192.388 16.935 192.707 16.003 192.909 14.946C193.11 13.888 193.211 12.775 193.211 11.606C193.211 10.698 193.114 9.756 192.92 8.782ZM169.095 20.789C169.598 20.493 170.188 20.27 170.864 20.121V3.62C170.576 3.546 170.281 3.449 169.979 3.328C169.677 3.208 169.382 3.073 169.095 2.925V2.118H179.32C179.305 2.86 179.28 3.606 179.244 4.358C179.208 5.109 179.154 5.865 179.082 6.625H178.521L177.637 3.565H172.935V10.939H176.451L177.292 8.879H177.831C177.917 10.716 177.917 12.59 177.831 14.5H177.292L176.451 12.386H172.935V20.149H177.896L178.953 16.81H179.492C179.593 17.589 179.665 18.378 179.708 19.175C179.751 19.973 179.758 20.78 179.729 21.596H169.095V20.789ZM166.895 6.625H166.334L165.45 3.565H160.639V11.495H164.371L165.255 9.436H165.752C165.78 9.863 165.802 10.312 165.816 10.786C165.83 11.259 165.838 11.741 165.838 12.233C165.838 12.743 165.83 13.239 165.816 13.721C165.802 14.204 165.78 14.658 165.752 15.085H165.255L164.371 12.942H160.639V20.126C161.272 20.237 161.89 20.459 162.494 20.792V21.596H157.015V20.789C157.26 20.641 157.511 20.511 157.77 20.4C158.029 20.288 158.295 20.196 158.568 20.121V3.62C158.252 3.528 157.964 3.421 157.706 3.3C157.447 3.18 157.217 3.055 157.015 2.925V2.118H167.132C167.118 2.841 167.092 3.583 167.057 4.344C167.021 5.105 166.967 5.865 166.895 6.625ZM145.302 20.789C145.59 20.641 145.885 20.511 146.187 20.4C146.489 20.288 146.783 20.196 147.071 20.121L145.612 15.029H140.484L139.068 20.121C139.672 20.233 140.29 20.455 140.923 20.789V21.596H136.135V20.789C136.652 20.493 137.17 20.27 137.688 20.121L143.145 1.784H143.771L149.228 20.121C149.516 20.196 149.8 20.279 150.08 20.372C150.361 20.465 150.623 20.604 150.868 20.789V21.596H145.302V20.789ZM143.552 7.683L143.145 5.29H143.102L142.566 7.739L140.913 13.582H145.247L143.552 7.683ZM132.036 13.304V20.121C132.597 20.214 133.143 20.437 133.675 20.789V21.596H128.196V20.789C128.714 20.455 129.304 20.233 129.965 20.121V13.332L125.608 3.62C125.277 3.546 124.971 3.449 124.691 3.328C124.411 3.208 124.134 3.073 123.861 2.925V2.118H129.577V2.925C129.361 3.036 129.116 3.152 128.843 3.272C128.57 3.393 128.261 3.509 127.916 3.62L131.454 11.801L134.775 3.62C134.445 3.528 134.132 3.421 133.837 3.3C133.542 3.18 133.266 3.055 133.007 2.925V2.118H137.752V2.925C137.206 3.277 136.659 3.509 136.113 3.62L132.036 13.304ZM116.958 20.789C117.519 20.455 118.094 20.233 118.684 20.121V3.62C118.396 3.546 118.108 3.449 117.821 3.328C117.533 3.208 117.246 3.073 116.958 2.925V2.118H122.48V2.925C122.221 3.073 121.941 3.208 121.639 3.328C121.337 3.449 121.042 3.546 120.755 3.62V20.121C121.057 20.196 121.359 20.288 121.661 20.4C121.963 20.511 122.236 20.641 122.48 20.789V21.596H116.958V20.789ZM111.939 20.817C111.536 20.168 111.169 19.533 110.838 18.911C110.508 18.29 110.198 17.659 109.911 17.019C109.623 16.379 109.353 15.73 109.102 15.071C108.85 14.413 108.595 13.712 108.336 12.97H106.302V20.121C106.633 20.214 106.949 20.312 107.251 20.414C107.553 20.516 107.848 20.641 108.136 20.789V21.596H102.463V20.789C102.779 20.604 103.081 20.465 103.369 20.372C103.656 20.279 103.944 20.196 104.231 20.121V3.62C103.857 3.528 103.527 3.421 103.239 3.3C102.951 3.18 102.692 3.055 102.463 2.925V2.118H104.361C104.937 2.118 105.568 2.081 106.253 2.006C106.938 1.932 107.605 1.895 108.253 1.895C108.959 1.895 109.619 1.997 110.231 2.201C110.844 2.405 111.374 2.73 111.821 3.175C112.268 3.62 112.617 4.186 112.87 4.872C113.122 5.559 113.248 6.385 113.248 7.349C113.248 8.703 112.97 9.826 112.415 10.716C111.859 11.606 111.105 12.246 110.154 12.636C110.772 13.898 111.419 15.15 112.095 16.393C112.771 17.636 113.476 18.869 114.209 20.094L115.384 20.901V21.596H112.758L111.939 20.817ZM110.217 10.529C110.8 9.719 111.091 8.649 111.091 7.322C111.091 5.959 110.782 4.955 110.163 4.31C109.545 3.665 108.747 3.342 107.769 3.342C107.424 3.342 107.14 3.351 106.917 3.37C106.694 3.388 106.489 3.425 106.302 3.48V11.746H107.855C108.848 11.746 109.635 11.34 110.217 10.529ZM95.927 20.789C96.214 20.641 96.509 20.511 96.811 20.4C97.113 20.288 97.408 20.196 97.695 20.121L96.236 15.029H91.108L89.693 20.121C90.297 20.233 90.915 20.455 91.548 20.789V21.596H86.759V20.789C87.277 20.493 87.794 20.27 88.312 20.121L93.769 1.784H94.395L99.852 20.121C100.14 20.196 100.424 20.279 100.705 20.372C100.985 20.465 101.247 20.604 101.492 20.789V21.596H95.927V20.789ZM94.177 7.683L93.769 5.29H93.726L93.19 7.739L91.538 13.582H95.872L94.177 7.683ZM84.106 3.62V20.149C84.408 20.224 84.692 20.312 84.958 20.414C85.224 20.516 85.479 20.641 85.724 20.789V21.596H80.417V20.789C80.705 20.641 80.992 20.516 81.28 20.414C81.568 20.312 81.863 20.214 82.165 20.121V7.599L82.251 4.344H82.078L81.366 7.321L76.944 21.596H76.383L72.177 7.321L71.401 4.065H71.206L71.228 7.599V20.121C71.501 20.196 71.774 20.288 72.048 20.4C72.321 20.511 72.594 20.641 72.867 20.789V21.596H68.359V20.789C68.632 20.641 68.916 20.507 69.211 20.386C69.506 20.265 69.804 20.168 70.106 20.094V3.62C69.804 3.546 69.506 3.449 69.211 3.328C68.916 3.208 68.625 3.073 68.337 2.925V2.118H72.76L76.513 14.834L77.246 17.7H77.268L78.001 14.779L81.884 2.118H85.745V2.925C85.486 3.073 85.22 3.208 84.947 3.328C84.674 3.449 84.393 3.546 84.106 3.62Z" fill="#33333F"/>
<path d="M4 17.5L18.5 7L33 17.5V38H4V17.5Z" fill="#33333F"/>
<path d="M0 13L18.5 0L37 13V17L18.5 4L0 17V13Z" fill="#33333F"/>
</svg>
