<svg xmlns="http://www.w3.org/2000/svg" xmlns:xlink="http://www.w3.org/1999/xlink" width="18px" height="32px">
    <path d="M10.121,19.755 L7.827,19.755 L7.827,22.062 L12.750,22.062 L12.750,25.687 L7.827,25.687 L7.827,31.359 L2.974,31.359 L2.974,25.687 L0.469,25.687 L0.469,22.062 L2.974,22.062 L2.974,0.475 L10.121,0.475 C14.975,0.475 17.357,3.166 17.357,8.108 L17.357,12.122 C17.357,17.064 14.975,19.755 10.121,19.755 ZM12.504,7.799 C12.504,5.593 11.666,4.887 10.121,4.887 L7.827,4.887 L7.827,15.343 L10.121,15.343 C11.666,15.343 12.504,14.637 12.504,12.431 L12.504,7.799 Z"/>
</svg>