<?xml version="1.0" encoding="utf-8"?><svg viewBox="0 0 992 512" xmlns="http://www.w3.org/2000/svg" xmlns:xlink="http://www.w3.org/1999/xlink"><style>:root>svg{display:none}:root>svg:target{display:block}</style><svg viewBox="0 0 992 341.3" id="arrow" xmlns="http://www.w3.org/2000/svg"><path d="M988.9 163.1l-160-160C824.7-1 818-1 813.8 3.1c-4.2 4.2-4.2 10.9 0 15.1L955.6 160H10.7C4.8 160 0 164.8 0 170.7s4.8 10.7 10.7 10.7h944.9L813.8 323.1c-4.2 4.2-4.2 10.9 0 15.1 2.1 2.1 4.8 3.1 7.5 3.1s5.5-1 7.5-3.1l160-160c4.2-4.2 4.2-10.9.1-15.1z"/></svg><svg viewBox="0 0 448.8 448.8" id="check" xmlns="http://www.w3.org/2000/svg"><path fill="#fff" d="M142.8 323.85L35.7 216.75 0 252.45l142.8 142.8 306-306-35.7-35.7z"/></svg><svg viewBox="0 0 512 512" id="instagram" xmlns="http://www.w3.org/2000/svg"><path d="M352 0H160C71.648 0 0 71.648 0 160v192c0 88.352 71.648 160 160 160h192c88.352 0 160-71.648 160-160V160C512 71.648 440.352 0 352 0zm112 352c0 61.76-50.24 112-112 112H160c-61.76 0-112-50.24-112-112V160C48 98.24 98.24 48 160 48h192c61.76 0 112 50.24 112 112v192z"/><path d="M256 128c-70.688 0-128 57.312-128 128s57.312 128 128 128 128-57.312 128-128-57.312-128-128-128zm0 208c-44.096 0-80-35.904-80-80 0-44.128 35.904-80 80-80s80 35.872 80 80c0 44.096-35.904 80-80 80z"/><circle cx="393.6" cy="118.4" r="17.056"/></svg></svg>