<?xml version="1.0" encoding="utf-8"?><svg viewBox="0 0 992 512" xmlns="http://www.w3.org/2000/svg" xmlns:xlink="http://www.w3.org/1999/xlink"><style>:root>svg{display:none}:root>svg:target{display:block}</style><svg viewBox="0 0 992 341.3" id="arrow" xmlns="http://www.w3.org/2000/svg"><path d="M988.9 163.1l-160-160C824.7-1 818-1 813.8 3.1c-4.2 4.2-4.2 10.9 0 15.1L955.6 160H10.7C4.8 160 0 164.8 0 170.7s4.8 10.7 10.7 10.7h944.9L813.8 323.1c-4.2 4.2-4.2 10.9 0 15.1 2.1 2.1 4.8 3.1 7.5 3.1s5.5-1 7.5-3.1l160-160c4.2-4.2 4.2-10.9.1-15.1z"/></svg><svg viewBox="0 0 448.8 448.8" id="check" xmlns="http://www.w3.org/2000/svg"><path fill="#fff" d="M142.8 323.85L35.7 216.75 0 252.45l142.8 142.8 306-306-35.7-35.7z"/></svg><svg viewBox="0 0 512 512" id="instagram" xmlns="http://www.w3.org/2000/svg"><path d="M352 0H160C71.648 0 0 71.648 0 160v192c0 88.352 71.648 160 160 160h192c88.352 0 160-71.648 160-160V160C512 71.648 440.352 0 352 0zm112 352c0 61.76-50.24 112-112 112H160c-61.76 0-112-50.24-112-112V160C48 98.24 98.24 48 160 48h192c61.76 0 112 50.24 112 112v192z"/><path d="M256 128c-70.688 0-128 57.312-128 128s57.312 128 128 128 128-57.312 128-128-57.312-128-128-128zm0 208c-44.096 0-80-35.904-80-80 0-44.128 35.904-80 80-80s80 35.872 80 80c0 44.096-35.904 80-80 80z"/><circle cx="393.6" cy="118.4" r="17.056"/></svg><svg fill="none" viewBox="0 0 270 39" id="logo" xmlns="http://www.w3.org/2000/svg"><path fill-rule="evenodd" clip-rule="evenodd" d="M126.168 26.831a113.918 113.918 0 01-.059 1.401c-.01.23-.026.44-.047.63h-.276l-.552-1.936h-1.595v8.055c.182.045.351.09.509.135.157.045.309.108.456.19v.392h-2.948v-.392a3.927 3.927 0 01.975-.325v-8.055h-1.605l-.556 1.936h-.263a11.442 11.442 0 01-.052-.616 47.762 47.762 0 01-.063-1.408c-.007-.23-.011-.435-.011-.616h6.097c0 .181-.003.384-.01.609zm-7.677 8.908a3.142 3.142 0 01-.503.094 4.7 4.7 0 01-.488.028c-.588 0-1.113-.098-1.574-.292a2.924 2.924 0 01-1.17-.886c-.319-.397-.564-.905-.735-1.523-.172-.618-.257-1.352-.257-2.2 0-.884.094-1.636.283-2.254.189-.618.444-1.123.766-1.516a2.915 2.915 0 011.123-.86c.427-.18.875-.27 1.343-.27.462 0 .85.038 1.165.115.315.076.591.191.829.345 0 .144-.003.314-.01.507a21.479 21.479 0 01-.147 1.821h-.273l-.546-1.949c-.076-.054-.204-.09-.382-.108a5.23 5.23 0 00-.528-.027c-.349 0-.678.083-.989.25-.31.167-.582.424-.816.772-.234.347-.42.785-.559 1.313-.14.528-.21 1.148-.21 1.861 0 .641.063 1.221.189 1.74.125.519.306.961.544 1.326.237.366.526.646.868.84.342.194.729.291 1.162.291.23 0 .422-.023.575-.068.154-.045.255-.104.304-.176l.493-1.679h.273c.035.253.066.571.094.955.028.383.035.756.021 1.117a1.237 1.237 0 01-.378.263 2.933 2.933 0 01-.467.17zm-11.254-.433c.245-.145.531-.253.86-.325v-8.028a3.481 3.481 0 01-.43-.142 5.055 5.055 0 01-.43-.196v-.393h4.974c-.007.361-.019.724-.037 1.09-.017.365-.044.733-.078 1.103h-.273l-.431-1.489h-2.287v3.587h1.71l.41-1.001h.262c.042.893.042 1.805 0 2.734h-.262l-.41-1.029h-1.71v3.777h2.413l.515-1.624h.262c.049.379.084.762.105 1.15.021.388.024.781.01 1.178h-5.173v-.392zm-.709-7.778l-.032.704c-.01.23-.026.44-.047.63h-.276l-.552-1.936h-1.595v8.055c.182.045.351.09.509.135.157.045.309.108.456.19v.392h-2.949v-.392a3.927 3.927 0 01.976-.325v-8.055h-1.605l-.556 1.936h-.263a11.442 11.442 0 01-.052-.616 47.762 47.762 0 01-.063-1.408c-.007-.23-.011-.435-.011-.616h6.097c0 .181-.003.384-.01.609a46.41 46.41 0 01-.027.697zm-9.617 7.778c.273-.163.553-.271.839-.325v-8.028a2.999 2.999 0 01-.419-.142 6.08 6.08 0 01-.42-.196v-.393h2.686v.393a3.481 3.481 0 01-.839.338v8.028c.147.036.294.081.441.135.147.054.279.117.398.19v.392h-2.686v-.392zm-3.631 0c.252-.145.514-.253.787-.325V31.19h-3.295v3.791c.14.036.276.081.409.135.133.054.259.117.378.19v.392h-2.655v-.392c.28-.145.567-.253.861-.325v-8.028a2.342 2.342 0 01-.861-.338v-.393h2.655v.393a2.024 2.024 0 01-.378.203 3.21 3.21 0 01-.409.135v3.533h3.295v-3.533a4.431 4.431 0 01-.414-.149 2.776 2.776 0 01-.373-.189v-.393h2.655v.393a1.52 1.52 0 01-.414.209c-.151.05-.3.093-.446.129v8.028c.16.036.314.081.461.135.147.054.28.117.399.19v.392H93.28v-.392zm-6.323.433a3.142 3.142 0 01-.503.094 4.7 4.7 0 01-.488.028c-.588 0-1.113-.098-1.574-.292a2.924 2.924 0 01-1.17-.886c-.319-.397-.564-.905-.735-1.523-.171-.618-.257-1.352-.257-2.2 0-.884.094-1.636.283-2.254.189-.618.444-1.123.766-1.516a2.915 2.915 0 011.123-.86c.427-.18.875-.27 1.343-.27.462 0 .85.038 1.165.115.315.076.591.191.829.345 0 .144-.003.314-.01.507a21.479 21.479 0 01-.147 1.821h-.273l-.546-1.949c-.076-.054-.204-.09-.382-.108a5.23 5.23 0 00-.528-.027c-.349 0-.678.083-.989.25-.31.167-.582.424-.816.772-.233.347-.42.785-.559 1.313-.14.528-.21 1.148-.21 1.861 0 .641.063 1.221.189 1.74.125.519.307.961.544 1.326.237.366.526.646.868.84.342.194.729.291 1.162.291.23 0 .422-.023.575-.068.154-.045.255-.104.304-.176l.493-1.679h.273c.035.253.066.571.094.955.028.383.035.756.021 1.117a1.237 1.237 0 01-.378.263 2.933 2.933 0 01-.467.17zm-6.896-.42a15.788 15.788 0 01-1.38-2.795 36.186 36.186 0 01-.373-1.022h-.989v3.479c.161.045.315.092.461.142.147.049.291.11.431.183v.392h-2.76v-.392c.154-.091.3-.158.441-.204.139-.045.279-.085.419-.121v-8.028a3.52 3.52 0 01-.86-.338v-.393h.923c.281 0 .588-.018.921-.054.333-.036.657-.054.973-.054.343 0 .664.049.962.149.298.099.556.257.774.473.217.217.387.492.51.826.122.334.184.736.184 1.205 0 .659-.135 1.205-.406 1.638a2.29 2.29 0 01-1.1.934 48.669 48.669 0 001.973 3.628l.572.393v.338H80.46l-.399-.379zm-.838-5.005c.284-.394.425-.914.425-1.56 0-.663-.15-1.152-.451-1.466-.301-.313-.689-.47-1.165-.47-.168 0-.306.004-.414.013a1.474 1.474 0 00-.299.054v4.021h.755a1.34 1.34 0 001.149-.592zm-6.952 4.992a3.65 3.65 0 01.43-.19c.147-.054.291-.099.431-.135l-.71-2.478h-2.495l-.689 2.478c.294.054.595.162.903.325v.392h-2.33v-.392c.252-.145.504-.253.756-.325l2.655-8.921h.304l2.655 8.921c.14.036.278.076.415.121.136.046.264.113.383.204v.392h-2.708v-.392zm-.851-6.377l-.198-1.164h-.021l-.261 1.192-.804 2.842h2.108l-.824-2.87zM52 0h2v39h-2V0zM264.179 21.596v-.807c.288-.148.583-.278.885-.389a9.22 9.22 0 01.884-.279l-1.459-5.092h-5.128l-1.416 5.092a6.537 6.537 0 011.855.668v.807h-4.788v-.807a7.055 7.055 0 011.553-.668l5.457-18.337h.626l5.457 18.337c.288.075.572.158.852.251.281.093.543.232.788.417v.807h-5.566zm-1.75-13.913l-.407-2.393h-.043l-.537 2.449-1.652 5.843h4.334l-1.695-5.899zM250.46 21.596l-1.186.334-5.501-18.31a8.326 8.326 0 01-.841-.32c-.273-.12-.539-.245-.798-.375v-.807h5.716v.807a9.104 9.104 0 01-1.769.695l3.689 12.717.453 2.226h.043l.431-2.282L253.89 3.62a8.5 8.5 0 01-.971-.32c-.302-.12-.597-.245-.884-.375v-.807h4.853v.807c-.417.296-.935.528-1.553.695l-4.875 17.976zm-10.731-2.518c-.583.9-1.298 1.6-2.147 2.101-.848.501-1.812.751-2.89.751-1.079 0-2.042-.25-2.891-.751-.849-.501-1.564-1.201-2.146-2.101-.583-.9-1.028-1.966-1.338-3.2-.309-1.234-.463-2.574-.463-4.021s.154-2.787.463-4.021c.31-1.234.755-2.3 1.338-3.2.582-.9 1.297-1.6 2.146-2.101.849-.501 1.812-.751 2.891-.751 1.078 0 2.042.25 2.89.751.849.501 1.564 1.201 2.147 2.101.582.9 1.028 1.966 1.337 3.2.309 1.234.464 2.574.464 4.021s-.155 2.787-.464 4.021c-.309 1.234-.755 2.3-1.337 3.2zm-.788-10.574c-.187-1.048-.474-1.962-.863-2.741-.388-.779-.877-1.396-1.466-1.851-.59-.454-1.288-.681-2.093-.681-.791 0-1.463.227-2.017.681-.554.455-1.003 1.072-1.348 1.851-.345.779-.597 1.693-.755 2.741a22.51 22.51 0 00-.237 3.353c0 1.187.097 2.305.291 3.353.194 1.048.485 1.962.874 2.741.388.779.877 1.396 1.466 1.85.59.455 1.287.682 2.093.682a2.91 2.91 0 001.92-.682c.546-.454.995-1.071 1.348-1.85.352-.779.618-1.693.798-2.741.18-1.048.27-2.166.27-3.353 0-1.187-.094-2.305-.281-3.353zm-15.546 12.313a32.457 32.457 0 01-2.028-3.798 36.596 36.596 0 01-.809-1.948 75.05 75.05 0 01-.766-2.101h-2.034v7.151c.331.093.648.191.95.293.302.102.596.227.884.375v.807h-5.673v-.807c.316-.185.618-.324.906-.417.287-.093.575-.176.863-.251V3.62a6.675 6.675 0 01-.993-.32 7.225 7.225 0 01-.776-.375v-.807h1.898c.577 0 1.207-.037 1.892-.112a18.631 18.631 0 012.001-.111c.706 0 1.365.102 1.978.306a4.024 4.024 0 011.589.974c.447.445.797 1.011 1.049 1.697.252.687.378 1.513.378 2.477 0 1.354-.277 2.477-.833 3.367a4.716 4.716 0 01-2.261 1.92 98.946 98.946 0 001.941 3.757 103.66 103.66 0 002.114 3.701l1.175.807v.695h-2.625l-.82-.779zm-1.721-10.288c.582-.81.873-1.88.873-3.207 0-1.363-.309-2.367-.927-3.012-.619-.645-1.417-.968-2.395-.968-.345 0-.629.009-.852.028a3.047 3.047 0 00-.615.11v8.266h1.554c.992 0 1.779-.406 2.362-1.217zm-11.67 8.549c-.583.9-1.298 1.6-2.146 2.101-.849.501-1.812.751-2.891.751s-2.042-.25-2.891-.751c-.848-.501-1.563-1.201-2.146-2.101-.582-.9-1.028-1.966-1.337-3.2-.31-1.234-.464-2.574-.464-4.021s.154-2.787.464-4.021c.309-1.234.755-2.3 1.337-3.2.583-.9 1.298-1.6 2.146-2.101.849-.501 1.812-.751 2.891-.751s2.042.25 2.891.751c.848.501 1.563 1.201 2.146 2.101.582.9 1.028 1.966 1.337 3.2.309 1.234.464 2.574.464 4.021s-.155 2.787-.464 4.021c-.309 1.234-.755 2.3-1.337 3.2zm-.788-10.574c-.187-1.048-.474-1.962-.862-2.741-.389-.779-.878-1.396-1.467-1.851-.59-.454-1.287-.681-2.093-.681-.791 0-1.463.227-2.016.681-.554.455-1.004 1.072-1.349 1.851-.345.779-.597 1.693-.755 2.741a22.51 22.51 0 00-.237 3.353c0 1.187.097 2.305.291 3.353.194 1.048.486 1.962.874 2.741.388.779.877 1.396 1.467 1.85.589.455 1.287.682 2.092.682.734 0 1.373-.227 1.92-.682.546-.454.996-1.071 1.348-1.85.352-.779.618-1.693.798-2.741.18-1.048.27-2.166.27-3.353 0-1.187-.094-2.305-.281-3.353zm-15.66 10.421a7.01 7.01 0 01-2.513 2.142c-1.014.52-2.211.78-3.591.78-.216 0-.461-.014-.734-.042a89.147 89.147 0 00-.863-.084l-.916-.083a9.738 9.738 0 00-.874-.042h-2.071v-.807c.503-.296 1.093-.519 1.769-.668V3.62a9.104 9.104 0 01-1.769-.695v-.807h2.2c.245 0 .532-.01.863-.028.331-.019.672-.042 1.025-.07.352-.028.69-.055 1.014-.083.323-.028.593-.042.809-.042 2.444 0 4.325.844 5.64 2.532 1.316 1.688 1.974 4.082 1.974 7.179 0 1.466-.162 2.825-.485 4.077-.324 1.252-.817 2.333-1.478 3.242zm-.636-10.143a9.42 9.42 0 00-.949-2.671 5.894 5.894 0 00-1.737-1.99c-.719-.519-1.596-.779-2.631-.779-.375 0-.734.005-1.079.014a3.586 3.586 0 00-.82.097v16.863c.072.019.201.033.389.042.186.009.388.019.604.028.215.009.42.014.614.014h.421c.992 0 1.833-.241 2.524-.724.69-.482 1.254-1.127 1.693-1.934.439-.807.758-1.739.96-2.796.201-1.058.302-2.171.302-3.34 0-.908-.097-1.85-.291-2.824zm-23.825 12.007c.503-.296 1.093-.519 1.769-.668V3.62a7.197 7.197 0 01-.885-.292 9.931 9.931 0 01-.884-.403v-.807h10.225c-.015.742-.04 1.488-.076 2.24a48.83 48.83 0 01-.162 2.267h-.561l-.884-3.06h-4.702v7.374h3.516l.841-2.06h.539a61.258 61.258 0 010 5.621h-.539l-.841-2.114h-3.516v7.763h4.961l1.057-3.339h.539c.101.779.173 1.568.216 2.365.043.798.05 1.605.021 2.421h-10.634v-.807zm-2.2-14.164h-.561l-.884-3.06h-4.811v7.93h3.732l.884-2.059h.497c.028.427.05.876.064 1.35a48.86 48.86 0 010 2.935 37.39 37.39 0 01-.064 1.364h-.497l-.884-2.143h-3.732v7.184a5.959 5.959 0 011.855.666v.804h-5.479v-.807a6.125 6.125 0 011.553-.668V3.62a5.95 5.95 0 01-1.553-.695v-.807h10.117a83.89 83.89 0 01-.075 2.226c-.036.761-.09 1.521-.162 2.281zm-21.593 14.164c.288-.148.583-.278.885-.389a9.22 9.22 0 01.884-.279l-1.459-5.092h-5.128l-1.416 5.092a6.537 6.537 0 011.855.668v.807h-4.788v-.807a7.055 7.055 0 011.553-.668l5.457-18.337h.626l5.457 18.337c.288.075.572.158.852.251.281.093.543.232.788.417v.807h-5.566v-.807zm-1.75-13.106l-.407-2.393h-.043l-.536 2.449-1.653 5.843h4.334l-1.695-5.899zm-11.516 5.621v6.817a4.207 4.207 0 011.639.668v.807h-5.479v-.807a4.662 4.662 0 011.769-.668v-6.789l-4.357-9.712a5.13 5.13 0 01-.917-.292c-.28-.12-.557-.255-.83-.403v-.807h5.716v.807a13.51 13.51 0 01-.734.347 9.412 9.412 0 01-.927.348l3.538 8.181 3.321-8.181a8.454 8.454 0 01-.938-.32 11.55 11.55 0 01-.83-.375v-.807h4.745v.807c-.546.352-1.093.584-1.639.695l-4.077 9.684zm-15.078 7.485a5.288 5.288 0 011.726-.668V3.62a6.178 6.178 0 01-.863-.292c-.288-.12-.575-.255-.863-.403v-.807h5.522v.807a7.24 7.24 0 01-1.725.695v16.501c.302.075.604.167.906.279.302.111.575.241.819.389v.807h-5.522v-.807zm-5.019.028a31.508 31.508 0 01-2.028-3.798 35.78 35.78 0 01-.809-1.948 75.05 75.05 0 01-.766-2.101h-2.034v7.151c.331.093.647.191.949.293.302.102.597.227.885.375v.807h-5.673v-.807c.316-.185.618-.324.906-.417.287-.093.575-.176.862-.251V3.62a6.698 6.698 0 01-.992-.32 7.134 7.134 0 01-.776-.375v-.807h1.898c.576 0 1.207-.037 1.892-.112a18.627 18.627 0 012-.111 6.22 6.22 0 011.978.306 4.02 4.02 0 011.59.974c.447.445.796 1.011 1.049 1.697.252.687.378 1.513.378 2.477 0 1.354-.278 2.477-.833 3.367a4.725 4.725 0 01-2.261 1.92 98.946 98.946 0 001.941 3.757 103.66 103.66 0 002.114 3.701l1.175.807v.695h-2.626l-.819-.779zm-1.722-10.288c.583-.81.874-1.88.874-3.207 0-1.363-.309-2.367-.928-3.012-.618-.645-1.416-.968-2.394-.968-.345 0-.629.009-.852.028a3.047 3.047 0 00-.615.11v8.266h1.553c.993 0 1.78-.406 2.362-1.217zm-14.29 10.26c.287-.148.582-.278.884-.389a9.31 9.31 0 01.884-.279l-1.459-5.092h-5.128l-1.415 5.092a6.537 6.537 0 011.855.668v.807h-4.789v-.807a7.076 7.076 0 011.553-.668l5.457-18.337h.626l5.457 18.337c.288.075.572.158.853.251.28.093.542.232.787.417v.807h-5.565v-.807zm-1.75-13.106l-.408-2.393h-.043l-.536 2.449-1.652 5.843h4.334l-1.695-5.899zM84.106 3.62v16.529c.302.075.586.163.852.265.266.102.521.227.766.375v.807h-5.307v-.807c.288-.148.575-.273.863-.375.288-.102.583-.2.885-.293V7.599l.086-3.255h-.173l-.712 2.977-4.422 14.275h-.561L72.177 7.321l-.776-3.256h-.195l.022 3.534v12.522c.273.075.546.167.82.279.273.111.546.241.819.389v.807h-4.508v-.807c.273-.148.557-.282.852-.403.295-.121.593-.218.895-.292V3.62a6.314 6.314 0 01-.895-.292c-.295-.12-.586-.255-.874-.403v-.807h4.423l3.753 12.716.733 2.866h.022l.733-2.921 3.883-12.661h3.861v.807a8.516 8.516 0 01-.798.403 5.402 5.402 0 01-.841.292z" fill="#33333F"/><path d="M4 17.5L18.5 7 33 17.5V38H4V17.5z" fill="#33333F"/><path d="M0 13L18.5 0 37 13v4L18.5 4 0 17v-4z" fill="#33333F"/></svg><svg viewBox="0 0 409.294 409.294" id="quote" xmlns="http://www.w3.org/2000/svg"><path d="M0 204.647v175.412h175.412V204.647H58.471c0-64.48 52.461-116.941 116.941-116.941V29.235C78.684 29.235 0 107.919 0 204.647zM409.294 87.706V29.235c-96.728 0-175.412 78.684-175.412 175.412v175.412h175.412V204.647H292.353c0-64.48 52.461-116.941 116.941-116.941z"/></svg><svg viewBox="0 0 18 32" id="rub" xmlns="http://www.w3.org/2000/svg"><path d="M10.121 19.755H7.827v2.307h4.923v3.625H7.827v5.672H2.974v-5.672H.469v-3.625h2.505V.475h7.147c4.854 0 7.236 2.691 7.236 7.633v4.014c0 4.942-2.382 7.633-7.236 7.633zm2.383-11.956c0-2.206-.838-2.912-2.383-2.912H7.827v10.456h2.294c1.545 0 2.383-.706 2.383-2.912V7.799z"/></svg><svg viewBox="0 0 512 512" id="select" xmlns="http://www.w3.org/2000/svg"><path d="M505.75 123.58a21.33 21.33 0 00-30.17 0L256 343.16 36.42 123.58a21.33 21.33 0 00-30.17 30.17l234.67 234.67a21.33 21.33 0 0030.17 0l234.66-234.67a21.33 21.33 0 000-30.17z"/></svg></svg>